<?xml version="1.0" standalone="no"?>
<!DOCTYPE svg PUBLIC "-//W3C//DTD SVG 20010904//EN"
 "http://www.w3.org/TR/2001/REC-SVG-20010904/DTD/svg10.dtd">
<svg version="1.0" xmlns="http://www.w3.org/2000/svg"
 width="100.000000pt" height="100.000000pt" viewBox="0 0 100.000000 100.000000"
 preserveAspectRatio="xMidYMid meet">
<metadata>
Created by potrace 1.14, written by Peter Selinger 2001-2017
</metadata>
<g transform="translate(0.000000,100.000000) scale(0.100000,-0.100000)"
fill="#000000" stroke="none">
<path d="M458 869 c-10 -5 -18 -15 -18 -22 0 -12 -154 -57 -192 -57 -11 0 -18
-8 -18 -20 0 -11 6 -20 13 -20 9 0 14 -14 15 -42 3 -64 31 -402 42 -492 6 -48
16 -86 26 -97 79 -87 313 -81 354 10 11 23 20 72 60 309 10 62 22 118 27 124
4 7 8 40 10 73 3 68 6 85 16 102 4 7 -2 18 -15 28 -13 8 -22 18 -20 20 12 25
-5 32 -107 44 -92 11 -110 16 -114 32 -6 21 -50 26 -79 8z m70 -16 c2 -9 -8
-13 -32 -13 -34 0 -44 8 -29 24 11 11 56 2 61 -11z"/>
</g>
</svg>
